<svg width="38" height="49" viewBox="0 0 38 49" fill="none" xmlns="http://www.w3.org/2000/svg">
<path d="M0 24.5C0 25.1765 0.531708 25.725 1.1875 25.725H22.0709L15.7854 32.2089C15.5627 32.4386 15.4376 32.7501 15.4376 33.0749C15.4375 33.7514 15.9692 34.2999 16.625 34.3C16.94 34.3003 17.2421 34.1713 17.4645 33.9411L25.777 25.3661C25.7768 25.3663 25.7771 25.366 25.777 25.3661C26.2404 24.8877 26.2407 24.1121 25.777 23.634L17.4645 15.059C17.0044 14.6006 16.2748 14.6006 15.8145 15.059C15.3428 15.529 15.3298 16.3045 15.7854 16.7911L22.0709 23.275H1.1875C0.531708 23.275 0 23.8235 0 24.5ZM32.0625 0H5.9375C2.65955 0.00314017 0.00304404 2.74354 0 6.125V15.925C0 16.6015 0.531708 17.15 1.1875 17.15C1.84329 17.15 2.375 16.6015 2.375 15.925V6.125C2.37717 4.09624 3.97085 2.45224 5.9375 2.45H32.0625C34.0292 2.45224 35.6228 4.09624 35.625 6.125V42.875C35.6228 44.9038 34.0292 46.5478 32.0625 46.55H5.9375C3.97085 46.5478 2.37717 44.9038 2.375 42.875V33.075C2.375 32.3985 1.84329 31.85 1.1875 31.85C0.531708 31.85 0 32.3985 0 33.075V42.875C0.00304404 46.2565 2.65955 48.9969 5.9375 49H32.0625C35.3404 48.9969 37.997 46.2565 38 42.875V6.125C37.997 2.74354 35.3404 0.00314017 32.0625 0Z" fill="white"/>
</svg>
